<svg width="294" height="208" viewBox="0 0 294 208" fill="none" xmlns="http://www.w3.org/2000/svg">
<path d="M146.369 313.662C118.489 313.662 93.8041 309.596 72.3134 301.464C50.8227 293.332 33.7366 280.553 21.1035 263.128C8.47045 245.702 1.54886 223.194 0.435605 195.603C0.14519 183.696 0 170.917 0 157.267C0 143.617 0.14519 130.547 0.435605 118.059C1.59727 91.0491 8.61564 68.8314 21.5391 51.4057C34.4626 33.9801 51.7423 21.056 73.3783 12.6336C95.0142 4.2112 119.361 0 146.369 0C164.956 0 182.865 2.1298 200.193 6.2926C217.473 10.5038 233.058 17.1352 246.998 26.1385C260.938 35.1418 272.022 46.7105 280.299 60.7478C288.576 74.8336 292.835 91.7752 293.174 111.524C293.174 114.138 292.206 116.413 290.367 118.301C288.479 120.189 286.253 121.108 283.591 121.108H194.723C190.077 121.108 186.64 120.189 184.462 118.301C182.284 116.413 180.348 113.17 178.605 108.475C175.411 99.1811 171.055 92.9369 165.537 89.7422C160.019 86.5475 153.485 84.9502 145.934 84.9502C136.35 84.9502 128.702 87.5156 123.039 92.5981C117.376 97.6806 114.23 106.926 113.649 120.237C112.778 144.052 112.778 168.448 113.649 193.425C114.23 206.785 117.376 216.03 123.039 221.064C128.702 226.147 136.35 228.712 145.934 228.712C153.485 228.712 160.067 226.969 165.73 223.484C171.393 219.999 175.653 213.9 178.605 205.187C180.058 200.25 181.945 196.91 184.269 195.168C186.592 193.425 190.077 192.554 194.723 192.554H283.591C286.204 192.554 288.431 193.522 290.367 195.361C292.255 197.249 293.174 199.476 293.174 202.138C292.884 221.887 288.624 238.829 280.299 252.914C272.022 267 260.938 278.569 246.998 287.524C233.058 296.527 217.424 303.158 200.193 307.321C182.865 311.532 164.956 313.662 146.369 313.662Z" fill="white"/>
</svg>
