<svg width="287" height="204" viewBox="0 0 287 204" fill="none" xmlns="http://www.w3.org/2000/svg">
<path d="M11.7618 304.949C8.56725 304.949 5.80831 303.788 3.48498 301.464C1.16166 299.141 0 296.382 0 293.187V11.7623C0 8.56762 1.16166 5.80856 3.48498 3.48513C5.80831 1.16171 8.56725 0 11.7618 0H94.9658C98.1604 0 100.919 1.16171 103.243 3.48513C105.566 5.80856 106.728 8.56762 106.728 11.7623V98.0194L155.953 9.58412C157.405 7.2607 159.486 5.08249 162.294 3.04949C165.053 1.0165 168.731 0 173.378 0H269.651C272.264 0 274.491 0.968093 276.427 2.80747C278.315 4.69525 279.234 6.92186 279.234 9.58412C279.234 11.3267 278.799 12.924 277.927 14.3762L199.515 145.94L285.333 290.573C286.204 291.735 286.64 293.332 286.64 295.365C286.64 297.979 285.672 300.254 283.833 302.142C281.945 304.03 279.718 304.949 277.056 304.949H177.734C171.926 304.949 167.618 303.594 164.908 300.786C162.149 298.027 160.454 296.091 159.874 294.93L106.728 199.96V293.187C106.728 296.382 105.566 299.141 103.243 301.464C100.919 303.788 98.1604 304.949 94.9658 304.949H11.7618Z" fill="white"/>
</svg>
