<svg width="287" height="204" viewBox="0 0 287 204" fill="none" xmlns="http://www.w3.org/2000/svg">
<path d="M285.333 290.573L199.515 145.94L277.927 14.3762C278.799 12.924 279.234 11.3267 279.234 9.58412C279.234 6.97027 278.315 4.74366 276.427 2.85587C274.539 0.968093 272.264 0 269.651 0H173.378C168.731 0 165.053 1.0165 162.294 3.04949C159.535 5.08249 157.405 7.2607 155.953 9.58412L112.391 87.8544L106.728 98.0194V11.7623C106.728 8.56762 105.566 5.80856 103.243 3.48513C100.919 1.16171 98.1604 0 94.9659 0H11.7619C8.56729 0 5.80831 1.16171 3.48499 3.48513C3.19457 3.82397 2.90419 4.1144 2.61378 4.45323C2.32336 4.79206 2.08131 5.13089 1.8877 5.46973C1.64568 5.80856 1.45212 6.19579 1.25851 6.53463C1.0649 6.92186 0.919666 7.2607 0.774459 7.64793C15.7793 17.9581 28.0735 31.0274 37.2216 46.6137C47.1441 63.5553 52.3716 83.8368 52.7104 106.877C52.7104 114.864 49.7094 122.125 44.2399 127.643C38.722 133.113 31.4617 136.114 23.7657 136.114H0V168.835H23.7657C31.4617 168.835 38.7221 171.836 44.1916 177.306C49.7094 182.873 52.7104 190.133 52.7104 197.781C52.3716 221.112 47.1441 241.394 37.2216 258.336C28.0735 273.922 15.7793 286.991 0.774459 297.301C0.919666 297.689 1.0649 298.076 1.25851 298.415C1.64573 299.141 2.08135 299.867 2.61378 300.496C2.90419 300.835 3.19457 301.125 3.48499 301.464C5.80831 303.788 8.56729 304.949 11.7619 304.949H94.9659C98.1604 304.949 100.919 303.788 103.243 301.464C105.566 299.141 106.728 296.382 106.728 293.187V199.96L112.391 210.076L159.874 294.93C160.454 296.091 162.149 298.076 164.908 300.835C167.666 303.594 171.926 304.949 177.734 304.949H277.056C279.67 304.949 281.945 304.03 283.833 302.142C285.72 300.254 286.64 297.979 286.64 295.365C286.64 293.332 286.204 291.735 285.333 290.573Z" fill="white"/>
</svg>
