<svg width="288" height="208" viewBox="0 0 288 208" fill="none" xmlns="http://www.w3.org/2000/svg">
<path d="M143.32 313.662C111.084 313.662 84.5109 309.306 63.601 300.593C42.6911 291.88 27.0086 280.408 16.5537 266.177C6.09871 251.946 0.580831 236.844 0 220.87C0 218.257 0.919658 216.03 2.80736 214.094C4.69506 212.206 6.92157 211.286 9.53531 211.286H92.3036C96.9503 211.286 100.484 211.916 103.001 213.222C105.469 214.529 108.131 216.369 111.084 218.644C113.988 220.677 116.941 222.516 119.99 224.065C123.039 225.662 126.524 226.824 130.445 227.55C134.365 228.276 138.625 228.664 143.32 228.664C153.194 228.664 161.084 227.55 167.037 225.372C172.991 223.194 175.992 220.241 175.992 216.466C175.992 212.98 174.298 210.076 170.958 207.753C167.618 205.429 161.858 203.348 153.727 201.46C145.595 199.572 134.269 197.733 119.748 196.039C96.8051 192.844 76.9116 187.471 60.0675 179.92C43.2234 172.369 30.2032 162.01 21.1035 148.747C11.9554 135.533 7.40559 119.317 7.40559 100.149C7.40559 80.4001 12.9718 62.9745 24.1528 47.8722C35.3338 32.77 50.8711 21.0076 70.7645 12.5852C90.658 4.2112 113.843 0 140.271 0C162.052 0 181.364 2.80747 198.208 8.47081C215.053 14.1342 229.283 21.5401 240.9 30.6885C252.516 39.837 261.374 49.6632 267.473 60.1186C273.571 70.574 276.766 80.5937 277.056 90.1779C277.056 92.7917 276.088 95.0667 274.249 96.9545C272.361 98.8423 270.231 99.762 267.908 99.762H180.784C176.718 99.762 173.426 99.1811 171.006 98.0194C168.538 96.8577 165.972 95.1151 163.359 92.7917C161.907 91.3396 159.196 89.6938 155.275 87.7576C151.355 85.8698 146.369 84.9502 140.222 84.9502C132.962 84.9502 127.637 86.0635 124.346 88.2417C121.006 90.4199 119.312 93.421 119.312 97.1481C119.312 99.762 120.619 102.231 123.233 104.554C125.847 106.877 130.638 108.91 137.608 110.653C144.578 112.396 154.598 114.138 167.666 115.881C196.708 119.366 219.99 124.981 237.608 132.629C255.178 140.325 267.957 150.587 275.943 163.366C283.929 176.145 287.947 191.973 287.947 210.851C287.947 232.052 281.606 250.349 268.973 265.742C256.34 281.134 239.109 292.945 217.327 301.222C195.546 309.499 170.909 313.662 143.32 313.662Z" fill="white"/>
</svg>
